<?xml version="1.0"?>
<svg xmlns="http://www.w3.org/2000/svg" xmlns:svg="http://www.w3.org/2000/svg" width="302" height="84">
 <g>
  <title>Layer 1</title>
  <rect id="svg_1" fill="#1693bd" height="83.85" width="302"/>
  <g id="svg_2">
   <rect id="svg_3" fill="none" height="26.566" width="195.065" y="32.839" x="102.639"/>
   <path id="svg_4" fill="#FFFFFF" d="m105.244003,32.838001l7,0c3.5,0 6.022995,2.360001 6.022995,5.995998c0,3.636002 -2.522995,6.077 -6.022995,6.077l-4.313004,0l0,7.081001l-2.685997,0l0,-19.153999l-0.000999,0zm6.564995,9.739998c2.306,0 3.717003,-1.438 3.717003,-3.743999s-1.411003,-3.662998 -3.689003,-3.662998l-3.906998,0l0,7.406998l3.878998,0z"/>
   <path id="svg_5" fill="#FFFFFF" d="m128.332001,43.418999l0.597,0l0,-0.243999c0,-2.251999 -1.275002,-3.010998 -3.012001,-3.010998c-2.115997,0 -3.824997,1.328999 -3.824997,1.328999l-1.084999,-1.925999c0,0 1.979996,-1.627003 5.127998,-1.627003c3.473,0 5.426003,1.899002 5.426003,5.372002l0,8.681999l-2.44101,0l0,-1.304001c0,-0.623997 0.054001,-1.085999 0.054001,-1.085999l-0.054001,0c0,0 -1.112991,2.713001 -4.395996,2.713001c-2.360001,0 -4.666,-1.438 -4.666,-4.178001c-0.000999,-4.529999 5.967003,-4.720001 8.274002,-4.720001zm-3.039001,6.782001c2.224998,0 3.662994,-2.333 3.662994,-4.367001l0,-0.435001l-0.677994,0c-1.980003,0 -5.561996,0.136002 -5.561996,2.604c0,1.113003 0.867996,2.198002 2.576996,2.198002z"/>
   <path id="svg_6" fill="#FFFFFF" d="m135.466995,32.838001l2.659012,0l0,2.685997l-2.659012,0l0,-2.685997zm0.028,5.425999l2.631012,0l0,13.728001l-2.631012,0l0,-13.728001z"/>
   <path id="svg_7" fill="#FFFFFF" d="m142.25,38.264l2.550003,0l0,2.388c0,0.57 -0.054001,1.030998 -0.054001,1.030998l0.054001,0c0.623993,-2.007 2.224991,-3.580997 4.341003,-3.580997c0.352997,0 0.677994,0.053997 0.677994,0.053997l0,2.604c0,0 -0.352997,-0.081997 -0.759995,-0.081997c-1.682007,0 -3.229004,1.194 -3.853012,3.229c-0.243988,0.786999 -0.325989,1.627998 -0.325989,2.468998l0,5.616001l-2.631012,0l0,-13.728001l0.001007,0z"/>
   <path id="svg_8" fill="#FFFFFF" d="m157.794998,38.264l2.794998,0l2.848999,9.631001c0.21701,0.704998 0.325012,1.465 0.353012,1.465l0.054993,0c0,0 0.134995,-0.760002 0.352997,-1.465l2.984009,-9.604l2.414001,0l2.956985,9.604c0.218002,0.704998 0.380005,1.465 0.380005,1.465l0.055008,0c0,0 0.108002,-0.760002 0.324997,-1.465l2.875992,-9.631001l2.768005,0l-4.423004,13.728001l-2.901993,0l-2.848999,-8.817001c-0.218002,-0.704998 -0.380005,-1.492001 -0.380005,-1.492001l-0.054993,0c0,0 -0.16301,0.787003 -0.380005,1.492001l-2.820999,8.817001l-2.930008,0l-4.423996,-13.728001z"/>
   <path id="svg_9" fill="#FFFFFF" d="m181.453003,32.838001l2.65799,0l0,2.685997l-2.65799,0l0,-2.685997zm0.026001,5.425999l2.631989,0l0,13.728001l-2.631989,0l0,-13.728001z"/>
   <path id="svg_10" fill="#FFFFFF" d="m188.806,40.57l-1.791,0l0,-2.116001l1.871994,0l0,-3.960999l2.55101,0l0,3.960999l3.309998,0l0,2.116001l-3.309998,0l0,6.104c0,2.740002 1.925995,3.092999 2.929993,3.092999c0.380005,0 0.624008,-0.054996 0.624008,-0.054996l0,2.334c0,0 -0.380005,0.053997 -0.923004,0.053997c-1.763,0 -5.263,-0.542999 -5.263,-5.127998l0,-6.402z"/>
   <path id="svg_11" fill="#FFFFFF" d="m197.947998,32.838001l2.632004,0l0,7.027c0,0.650997 -0.054001,1.139 -0.054001,1.139l0.054001,0c0.597,-1.329002 2.332993,-3.065002 5.072998,-3.065002c3.229004,0 4.720993,1.763 4.720993,5.263l0,8.790001l-2.631989,0l0,-8.193001c0,-1.925999 -0.406006,-3.445 -2.604004,-3.445c-2.061996,0 -3.770996,1.410999 -4.341003,3.391998c-0.162003,0.542 -0.216995,1.166 -0.216995,1.817001l0,6.43l-2.632004,0l0,-19.154999z"/>
   <path id="svg_12" fill="#FFFFFF" d="m221.279999,38.264l2.550995,0l0,1.818001c0,0.542 -0.054993,1.003998 -0.054993,1.003998l0.054993,0c0.651001,-1.600998 2.577011,-3.146999 4.721008,-3.146999c2.306,0 3.662003,1.058002 4.123993,3.119999l0.054001,0c0.76001,-1.654999 2.659012,-3.119999 4.884003,-3.119999c3.093002,0 4.529999,1.763 4.529999,5.263l0,8.790001l-2.632004,0l0,-8.221001c0,-1.925999 -0.37999,-3.445 -2.440994,-3.445c-1.925995,0 -3.363998,1.627998 -3.852997,3.5c-0.136002,0.569 -0.188995,1.193001 -0.188995,1.898998l0,6.267002l-2.632004,0l0,-8.221001c0,-1.791 -0.270996,-3.445 -2.388,-3.445c-2.007996,0 -3.417999,1.654999 -3.934006,3.608002c-0.136002,0.542999 -0.162994,1.167 -0.162994,1.790997l0,6.267002l-2.632004,0l0,-13.728001z"/>
   <path id="svg_13" fill="#FFFFFF" d="m251.992004,37.938999c3.878998,0 5.94101,2.875 5.94101,6.429001c0,0.354 -0.082001,1.139999 -0.082001,1.139999l-10.011017,0c0.136002,3.012001 2.279007,4.531002 4.721008,4.531002c2.360001,0 4.069,-1.601002 4.069,-1.601002l1.085999,1.925999c0,0 -2.035004,1.953003 -5.318008,1.953003c-4.312988,0 -7.270996,-3.118999 -7.270996,-7.189003c0.001007,-4.368 2.958008,-7.188999 6.865005,-7.188999zm3.25499,5.588001c-0.081009,-2.360001 -1.546005,-3.5 -3.309998,-3.5c-2.008011,0 -3.636002,1.248001 -4.016006,3.5l7.326004,0z"/>
  </g>
  <g id="svg_14">
   <path id="svg_15" fill="#FFFFFF" d="m56,53l0,3.080002l-30.08,0l0,-3.080002c0,-3.849998 4.120001,-7.139999 9.890001,-8.389999l0,-1.82c-1.110001,-1.190002 -1.940002,-2.77 -2.310001,-4.580002c-0.939999,-4.579998 1.380001,-8.919998 5.189999,-9.709999c3.810001,-0.780001 7.66,2.290001 8.600002,6.860001c0.669998,3.220001 -0.290001,6.32 -2.23,8.139999l0,0.919998c6.309998,1.050003 10.939999,4.5 10.939999,8.580002z"/>
   <path id="svg_16" fill="#FFFFFF" d="m66,44.349998l0,-1.969997c1.419998,-1.470001 2.309998,-3.610001 2.309998,-6c0,-4.420002 -3.049995,-8.000002 -6.809998,-8.000002s-6.810001,3.58 -6.810001,8.000002c0,2.32 0.850002,4.419998 2.190002,5.879997l0,2.420002c-1.568001,0.359001 -3.002003,0.873001 -4.264999,1.502998c2.899998,1.685001 4.718998,4.063 4.718998,6.704002l0,3.193001l19.996002,0l0,-3.080002c0,-4.16 -4.82,-7.669998 -11.330002,-8.650002z"/>
  </g>
  <g id="svg_17"/>
  <g id="svg_18"/>
  <g id="svg_19"/>
  <g id="svg_20"/>
  <g id="svg_21"/>
  <g id="svg_22"/>
 </g>
</svg>
